<svg width="217" height="84" viewBox="0 0 217 84" fill="none" xmlns="http://www.w3.org/2000/svg">
<rect width="216.635" height="83.7742" rx="8" fill="#1B1A18"/>
<path d="M53.119 67.7367C41.4729 67.7367 32 58.5465 32 47.2497C32 35.9529 41.4743 26.7627 53.119 26.7627H53.1242C55.0858 23.476 57.868 20.7558 61.1979 18.8689C64.5279 16.9821 68.291 15.9935 72.1183 16C82.709 16 91.8883 23.6554 93.8662 33.9631C98.9367 37.417 101.936 43.058 101.936 49.2428C101.936 59.4407 93.6406 67.7367 83.4439 67.7367C83.4439 67.7367 69.317 69.1622 69.5584 54.2026H67.4186C67.4186 54.2026 68.9244 67.8847 53.394 67.7735L53.119 67.7367Z" fill="#F3F2F2"/>
<path d="M72.4382 51.2563C72.0833 51.8802 71.2725 53.0856 71.2325 53.1261C71.1356 53.223 71.0206 53.2997 70.894 53.352C70.7674 53.4043 70.6317 53.4311 70.4947 53.4308L66.4909 53.4341C66.3239 53.4326 66.1595 53.3916 66.0114 53.3144C65.8633 53.2372 65.7356 53.1259 65.6387 52.9898C65.2703 52.4654 64.9051 51.8802 64.5474 51.2577C63.3673 51.5592 59.9268 51.8672 59.9268 51.8672C59.9268 51.8672 60.2738 46.6235 62.0024 44.6686C61.6084 42.7528 61.5135 40.7765 61.9094 38.8997C62.6621 35.3453 65.1056 32.6731 67.7571 30.0198C67.9528 29.8244 68.2181 29.7146 68.4947 29.7146C68.7712 29.7146 69.0365 29.8244 69.2322 30.0198C71.7767 32.5642 74.3264 35.3505 75.0748 38.9058C75.4735 40.7783 75.38 42.7546 74.9851 44.6747C76.7146 46.6286 77.0621 51.8713 77.0621 51.8713C77.0621 51.8713 73.6184 51.5592 72.4382 51.2563Z" fill="#353431"/>
<path d="M70.3501 40.1371C70.3501 39.7783 70.2437 39.4275 70.0443 39.1291C69.845 38.8307 69.5616 38.5982 69.2301 38.4608C68.8986 38.3235 68.5339 38.2876 68.1819 38.3576C67.83 38.4276 67.5068 38.6004 67.253 38.8541C66.9993 39.1079 66.8265 39.4312 66.7565 39.7832C66.6865 40.1351 66.7225 40.4999 66.8598 40.8315C66.9971 41.163 67.2296 41.4464 67.528 41.6457C67.8263 41.8451 68.1771 41.9515 68.5359 41.9515C69.017 41.9515 69.4785 41.7604 69.8187 41.4201C70.1589 41.0798 70.3501 40.6183 70.3501 40.1371Z" fill="#F3F2F2"/>
<path d="M127.078 54.3115C127.016 54.4045 126.924 54.5303 126.804 54.6888C126.683 54.8473 126.397 55.1292 125.946 55.5346C125.497 55.9379 125.011 56.2978 124.494 56.6093C123.976 56.9216 123.294 57.1996 122.448 57.4434C121.597 57.6883 120.716 57.8116 119.831 57.8096C117.209 57.8096 115.034 56.8988 113.304 55.0773C111.575 53.2557 110.71 50.8897 110.71 47.9792V34.8796H113.979V47.9792C113.979 49.9453 114.588 51.5683 115.807 52.8483C117.026 54.1283 118.52 54.7685 120.288 54.7688C122.193 54.7688 123.801 54.0677 125.111 52.6655C126.421 51.2633 127.076 49.4724 127.077 47.293V34.8796H130.37V57.3504H127.078L127.078 54.3115Z" fill="#F3F2F2"/>
<path d="M141.364 67.1823H138.096V34.8798H141.364V38.4002C141.426 38.309 141.537 38.168 141.696 37.9773C141.855 37.7865 142.183 37.4627 142.679 37.0059C143.176 36.5475 143.715 36.1379 144.29 35.7828C144.869 35.4246 145.612 35.1045 146.519 34.8226C147.426 34.5407 148.37 34.3981 149.319 34.3997C152.184 34.3997 154.695 35.5503 156.851 37.8517C159.007 40.153 160.086 42.9078 160.086 46.1161C160.086 49.3243 159.012 52.0752 156.863 54.3688C154.714 56.6624 152.199 57.81 149.319 57.8116C148.378 57.8143 147.442 57.6755 146.542 57.3998C145.651 57.1253 144.9 56.7977 144.29 56.4168C143.732 56.0732 143.201 55.6873 142.702 55.2625C142.252 54.8736 141.913 54.5421 141.684 54.2679L141.364 53.8334V67.1823ZM143.822 52.1739C145.46 53.9036 147.293 54.7685 149.319 54.7685C151.255 54.7685 152.988 53.9264 154.52 52.2423C156.051 50.5581 156.817 48.5159 156.817 46.1156C156.817 43.715 156.051 41.6726 154.52 39.9885C152.988 38.3044 151.255 37.4626 149.319 37.4632C147.292 37.4632 145.46 38.3281 143.822 40.0578C142.184 41.7875 141.365 43.807 141.364 46.1161C141.364 48.4252 142.184 50.4446 143.822 52.1743V52.1739Z" fill="#F3F2F2"/>
<path d="M175.767 37.919H170.371V57.3523H167.102V37.919H163.584V34.8797H167.104V30.673C167.104 28.5851 167.641 26.9695 168.715 25.8262C169.79 24.683 171.279 24.1115 173.184 24.1118C173.746 24.1115 174.305 24.1728 174.853 24.2947C175.401 24.4165 175.813 24.5384 176.087 24.6603L176.453 24.8204V27.8612C175.523 27.3885 174.509 27.1523 173.413 27.1526C171.386 27.1526 170.373 28.3261 170.373 30.673V34.8797H175.769L175.767 37.919Z" fill="#DD6B20"/>
<path d="M181.036 25.8834C181.439 25.4802 181.938 25.2786 182.533 25.2786C183.128 25.2786 183.627 25.4802 184.03 25.8834C184.433 26.2866 184.635 26.7858 184.635 27.3809C184.635 27.9761 184.433 28.4753 184.03 28.8785C183.627 29.2817 183.128 29.4833 182.533 29.4833C181.938 29.4833 181.439 29.2817 181.036 28.8785C180.632 28.4753 180.431 27.9761 180.431 27.3809C180.431 26.7858 180.632 26.2866 181.036 25.8834ZM180.91 34.8796H184.179V57.3503H180.91V34.8796Z" fill="#DD6B20"/>
</svg>
